<?xml version="1.0" encoding="UTF-8"?>
<svg width="180pt" height="180pt" version="1.0" viewBox="0 0 180 180" xmlns="http://www.w3.org/2000/svg">
<path d="m90 179.31s61.531-58.675 61.012-122.02c0 0 4.6e-4 -56.598-61.012-56.598-61.012 0-61.012 56.598-61.012 56.598-0.51925 62.829 61.012 122.02 61.012 122.02zm-10.708-79.492v-72.546h27.365c4.8166 0 8.495 0.23093 11.035 0.69279 3.563 0.59382 6.5486 1.732 8.9568 3.4145 2.4083 1.6495 4.3382 3.9753 5.7898 6.9774 1.4846 3.0021 2.2268 6.3011 2.2268 9.8971 0 6.1692-1.9547 11.406-5.8888 15.687-3.9176 4.2633-11.019 6.3836-21.279 6.3836h-14.146v29.493zm14.061-42.172h12.577c5.454 0 9.3321-0.80324 11.625-2.4097 2.2931-1.6065 3.4397-3.867 3.4397-6.7817 0-2.1114-0.68213-3.9129-2.0464-5.4047-1.3352-1.5147-3.1059-2.513-5.3119-2.9949-1.4223-0.29835-4.0492-0.44752-7.8808-0.44752h-12.403zm-40.585 42.172v-72.546h14.061v72.546z" fill="#353535"/>
</svg>
