<?xml version="1.0" encoding="UTF-8" standalone="no"?>
<svg
   width="180pt"
   height="180pt"
   version="1.0"
   viewBox="0 0 180 180"
   id="svg1077"
   sodipodi:docname="type-androidtv.svg"
   inkscape:version="1.1.1 (3bf5ae0d25, 2021-09-20)"
   xmlns:inkscape="http://www.inkscape.org/namespaces/inkscape"
   xmlns:sodipodi="http://sodipodi.sourceforge.net/DTD/sodipodi-0.dtd"
   xmlns:xlink="http://www.w3.org/1999/xlink"
   xmlns="http://www.w3.org/2000/svg"
   xmlns:svg="http://www.w3.org/2000/svg">
  <defs
     id="defs1081" />
  <sodipodi:namedview
     id="namedview1079"
     pagecolor="#ffffff"
     bordercolor="#666666"
     borderopacity="1.0"
     inkscape:pageshadow="2"
     inkscape:pageopacity="0.0"
     inkscape:pagecheckerboard="0"
     inkscape:document-units="pt"
     showgrid="false"
     inkscape:zoom="1.2860505"
     inkscape:cx="196.33755"
     inkscape:cy="181.17485"
     inkscape:window-width="1654"
     inkscape:window-height="1338"
     inkscape:window-x="2022"
     inkscape:window-y="88"
     inkscape:window-maximized="0"
     inkscape:current-layer="svg1077" />
  <g
     transform="matrix(0,-0.16937929,-0.1186974,0,196.82766,248.20618)"
     id="g1075">
    <path
       d="m 638.73445,1506.406 -0.51085,-549.55442 -25.99688,-1.68436 -0.48515,278.00398 h -59.51593 l 0.043,-654.18587 59.47346,-0.18084 0.83037,277.33227 25.65113,-0.34755 0.51085,-553.05729 c 0,-45.26189 -6.21025,-57.73196 41.2339,-57.73196 h 579.42225 c 30.941,0 30.6094,15.759 30.6094,49 V 1508.0618 c 0,31.357 1.9206,46.9382 -30.6094,46.9382 H 665.25702 c -33.299,0 -26.52257,-16.991 -26.52257,-48.594 z m 594.94725,-46.3822 V 347.71515 H 693.64583 V 1460.0238 Z"
       id="path1073"
       sodipodi:nodetypes="sccccccccccssssssccccc" />
  </g>
  <g
     id="g1386"
     transform="matrix(1.8364854,0,0,1.8364854,-76.549237,-76.715799)">
    <use
       stroke-width="14.4"
       xlink:href="#b"
       stroke="#ffffff"
       id="use822"
       x="0"
       y="0"
       width="100%"
       height="100%" />
    <use
       xlink:href="#a"
       transform="matrix(-0.99999997,0,0,0.99999997,181.37823,1.7032385e-6)"
       id="use824"
       x="0"
       y="0"
       width="100%"
       height="100%" />
    <g
       id="a"
       stroke="#ffffff"
       stroke-width="7.2"
       transform="matrix(0.12249465,0,0,0.12249465,90.689123,75.525556)">
      <rect
         rx="6.5"
         transform="rotate(29)"
         height="86"
         width="13"
         y="-86"
         x="14"
         id="rect826" />
      <rect
         id="c"
         rx="24"
         height="133"
         width="48"
         y="41"
         x="-143" />
      <use
         y="97"
         x="85"
         xlink:href="#c"
         id="use829"
         width="100%"
         height="100%" />
    </g>
    <g
       id="b"
       transform="matrix(0.12249465,0,0,0.12249465,90.689123,75.525556)">
      <ellipse
         cy="41"
         rx="91"
         ry="84"
         id="ellipse832"
         cx="0" />
      <rect
         rx="22"
         height="182"
         width="182"
         y="20"
         x="-91"
         id="rect834" />
    </g>
    <g
       stroke="#ffffff"
       stroke-width="7.2"
       fill="#ffffff"
       id="g845"
       transform="matrix(0.12249465,0,0,0.12249465,90.689123,75.525556)">
      <path
         d="M -95,44.5 H 95"
         id="path839" />
      <circle
         cx="-42"
         r="4"
         id="circle841"
         cy="0" />
      <circle
         cx="42"
         r="4"
         id="circle843"
         cy="0" />
    </g>
  </g>
</svg>
