<?xml version="1.0" encoding="UTF-8" standalone="no"?>
<svg
   width="180pt"
   height="180pt"
   version="1.0"
   viewBox="0 0 180 180"
   id="svg1077"
   sodipodi:docname="type-tasker.svg"
   inkscape:version="1.1.1 (3bf5ae0d25, 2021-09-20)"
   xmlns:inkscape="http://www.inkscape.org/namespaces/inkscape"
   xmlns:sodipodi="http://sodipodi.sourceforge.net/DTD/sodipodi-0.dtd"
   xmlns:xlink="http://www.w3.org/1999/xlink"
   xmlns="http://www.w3.org/2000/svg"
   xmlns:svg="http://www.w3.org/2000/svg">
  <defs
     id="defs1081">
    <linearGradient
       id="a"
       x1="6.6999998"
       x2="93.290001"
       y1="31.25"
       y2="31.25"
       gradientUnits="userSpaceOnUse"
       gradientTransform="matrix(0.75,0,0,0.75,51.163544,59.406392)"
       xlink:href="#c">
      <stop
         offset="0"
         stop-color="#d93025"
         id="stop3510" />
      <stop
         offset="1"
         stop-color="#ea4335"
         id="stop3512" />
    </linearGradient>
    <linearGradient
       id="b"
       x1="55.41"
       x2="12.11"
       y1="96.870003"
       y2="21.870001"
       gradientUnits="userSpaceOnUse"
       gradientTransform="matrix(0.75,0,0,0.75,51.163544,59.406392)">
      <stop
         offset="0"
         stop-color="#1e8e3e"
         id="stop3500" />
      <stop
         offset="1"
         stop-color="#34a853"
         id="stop3502" />
    </linearGradient>
    <linearGradient
       id="c"
       x1="42.700001"
       x2="86"
       y1="100"
       y2="25.129999"
       gradientUnits="userSpaceOnUse"
       gradientTransform="matrix(0.75,0,0,0.75,51.163544,59.406392)">
      <stop
         offset="0"
         stop-color="#fcc934"
         id="stop3505" />
      <stop
         offset="1"
         stop-color="#fbbc04"
         id="stop3507" />
    </linearGradient>
  </defs>
  <sodipodi:namedview
     id="namedview1079"
     pagecolor="#ffffff"
     bordercolor="#666666"
     borderopacity="1.0"
     inkscape:pageshadow="2"
     inkscape:pageopacity="0.0"
     inkscape:pagecheckerboard="0"
     inkscape:document-units="pt"
     showgrid="false"
     inkscape:zoom="1.81875"
     inkscape:cx="149.82818"
     inkscape:cy="219.38144"
     inkscape:window-width="1654"
     inkscape:window-height="1338"
     inkscape:window-x="98"
     inkscape:window-y="23"
     inkscape:window-maximized="0"
     inkscape:current-layer="g3776" />
  <g
     id="g3776"
     transform="matrix(1.5938889,0,0,1.5938889,-51.313862,-64.459325)"
     style="display:inline;mix-blend-mode:normal">
    <g
       id="g11700"
       transform="matrix(1.4539031,0,0,1.4539031,-40.24296,-43.986486)">
      <path
         style="display:inline;fill:#c6c6c6;fill-opacity:1;fill-rule:evenodd;stroke:none;stroke-width:0.470547px;stroke-linecap:butt;stroke-linejoin:miter;stroke-opacity:1"
         d="m 90.980382,76.863795 c -0.74081,-0.08113 -1.493495,-0.122773 -2.255907,-0.122773 -8.536846,-2e-6 -16.559302,6.192064 -18.933719,12.837784 l -2.64081,1.635486 1.680839,1.275848 c -0.278976,1.041154 -0.5959,3.189491 -0.5959,4.740472 10e-7,5.625148 2.266784,10.720848 5.936726,14.423498 l -5.030274,8.96193 -6.681551,2.77214 c 0,0 -2.286784,1.00618 -3.110027,-0.36589 -0.823242,-1.37206 -7.683595,-13.62923 -7.683595,-13.62923 0,0 -0.731771,-1.46354 0.365885,-2.28679 1.097657,-0.82324 8.232425,-6.31152 8.232425,-6.31152 l -0.182943,-7.592124 -7.775067,-6.128582 c 0,0 -1.372071,-1.189128 -0.548829,-2.65267 0.823243,-1.463542 7.683596,-13.080407 7.683596,-13.080407 0,0 0.823243,-1.646484 2.744142,-0.823242 1.920899,0.823242 8.872723,3.750326 8.872723,3.750326 v -2e-5 l 6.677411,-3.567384 1.37207,-10.519208 c 0,0 -0.09147,-1.463542 1.737957,-1.463542 h 15.367193 c 0,0 1.737955,0.182943 2.012375,1.829428 0.27441,1.646484 1.37206,9.97038 1.37206,9.97038 l 1.282148,0.592994 z m 17.733738,-3.658125 6.70761,-2.596494 c 0,0 1.64648,-0.6403 2.28678,0.457357 0.6403,1.097656 7.95801,13.720707 7.95801,13.720707 0,0 0.36589,1.646485 -0.27441,2.103842 -0.6403,0.457356 -8.3239,6.12858 -8.3239,6.12858 l 0.18295,7.592118 7.86653,6.67742 c 0,0 1.2806,1.2806 0.54883,2.37825 -0.73177,1.09766 -7.59212,12.98894 -7.59212,12.98894 0,0 -0.6403,1.37207 -2.37826,0.82324 -1.73795,-0.54883 -9.60449,-3.56738 -9.60449,-3.56738 l -6.311538,3.65885 -1.46354,9.6045 c 0,0 -0.18295,1.82942 -2.103845,1.82942 -1.920901,0 -15.184249,0.0915 -15.184249,0.0915 0,0 -1.737958,0 -2.012372,-1.73796 -0.274414,-1.73796 -1.372071,-9.97038 -1.372071,-9.97038 l -1.012479,-0.54843 9.392893,-5.29587 c 0.883512,0.11631 1.784761,0.17632 2.700026,0.17632 8.668798,0 16.532935,-5.90091 19.008775,-12.66612 0.0682,-0.18639 3.70291,-2.11029 3.70291,-2.11029 l -2.53897,-2.10392 c 0,0 0.31687,-2.377776 0.31687,-3.609258 0,-5.509689 -2.17469,-10.511452 -5.71253,-14.193761 z"
         id="path8499"
         sodipodi:nodetypes="cscccscccscscccscsccccscscccccscscccscscccscscccssccscc" />
      <path
         style="display:inline;fill:#a1a1a1;fill-opacity:1;stroke:none;stroke-width:0.470547px;stroke-linecap:butt;stroke-linejoin:miter;stroke-opacity:1"
         d="M 111.04245,66.693827 69.148565,90.705066 109.76186,102.73355 95.309378,94.318183 Z"
         id="path9536"
         sodipodi:nodetypes="ccccc" />
      <path
         style="display:inline;fill:#8b8b8b;fill-opacity:1;stroke:none;stroke-width:0.470547px;stroke-linecap:butt;stroke-linejoin:miter;stroke-opacity:1"
         d="M 68.325322,91.208158 109.03009,103.23664 66.678837,127.15641 82.503383,99.806468 Z"
         id="path11772"
         sodipodi:nodetypes="ccccc" />
    </g>
  </g>
</svg>
