<?xml version="1.0" encoding="UTF-8"?>
<svg width="180pt" height="180pt" version="1.0" viewBox="0 0 180 180" xmlns="http://www.w3.org/2000/svg">
<g transform="matrix(.12672 0 0 -.12672 -24.387 204.05)">
<path d="m830 1528.9v-28.864h-545.2c-54.141 0-84.796-33.768-84.796-86.423v-1130.6c0-55.771 42.854-92.932 84.796-92.932h595.53c52.051 0 89.677 42.743 89.677 87.833v22.167h558.46c40.704 0 81.542 35.284 81.542 83.169v1137.2c0 54.136-31.114 89.677-81.542 89.677h-615.29c-59.333 0-83.169-34.889-83.169-81.136zm653.73-117.12v-906.29c0-41.807-30.803-74.132-72.589-72.505h-379.11c-42.321 0-73.081 30.634-73.081 69.251v906.29c-0.68467 36.338 26.038 58.794 66.573 58.794h395.38c37.296 0 62.826-20.015 62.826-55.54zm-709.56-1101.7c-137.04-2.586-286.42-3.3272-381.58-3.5383-36.57-0.34391-70.149 32.77-70.149 75.259v927.44c-0.96793 33.175 20.228 60.354 63.632 60.354 103.19-0.1073 309.06-0.3021 443.93-0.3021l-3e-3 -975.27c-0.33698-33.542 19.723-59.021 19.723-59.021-4.9917-18.629-36.904-24.924-75.549-24.924z"/>
</g>
</svg>
