<?xml version="1.0" encoding="UTF-8"?>
<svg width="180pt" height="180pt" version="1.0" viewBox="0 0 180 180" xmlns="http://www.w3.org/2000/svg" xmlns:xlink="http://www.w3.org/1999/xlink">
<g transform="matrix(1.5939 0 0 1.5939 -51.314 -64.459)" style="mix-blend-mode:normal">
<path d="m136.95 69.019c-20.475-35.46-70.239-37.1-93.423-4.9193l17.159 29.435c1.3302-13.166 11.989-24.516 27.975-24.516z" fill="#848484" stroke-width="1.1151"/>
<path d="m64.515 110.85-24.15-41.831c-20.42 35.368 2.8623 79.147 42.134 83.336l16.645-29.29c-12.692 5.0223-27.993-0.72069-34.629-12.215z" fill="#6c6c6c" stroke-width="1.1155"/>
<path d="m112.82 110.85-24.15 41.831c40.751-0.01 66.99-41.886 51.189-77.936l-33.898 0.04325c10.378 7.9879 14.446 22.921 6.8591 36.062z" fill="#ababab" stroke-width="1.1155"/>
<path d="m88.665 118.99a22.087 22.087 0 1 0 0-44.173 22.087 22.087 0 0 0 0 44.173z" fill="#808182" stroke-width="1.1155"/>
</g>
</svg>
