<?xml version="1.0" encoding="UTF-8" standalone="no"?>
<svg
   width="180pt"
   height="180pt"
   version="1.0"
   viewBox="0 0 180 180"
   id="svg1077"
   sodipodi:docname="type-mqtt.svg"
   inkscape:version="1.1.1 (3bf5ae0d25, 2021-09-20)"
   xmlns:inkscape="http://www.inkscape.org/namespaces/inkscape"
   xmlns:sodipodi="http://sodipodi.sourceforge.net/DTD/sodipodi-0.dtd"
   xmlns="http://www.w3.org/2000/svg"
   xmlns:svg="http://www.w3.org/2000/svg">
  <defs
     id="defs1081" />
  <sodipodi:namedview
     id="namedview1079"
     pagecolor="#ffffff"
     bordercolor="#666666"
     borderopacity="1.0"
     inkscape:pageshadow="2"
     inkscape:pageopacity="0.0"
     inkscape:pagecheckerboard="0"
     inkscape:document-units="pt"
     showgrid="false"
     inkscape:zoom="1.81875"
     inkscape:cx="15.670103"
     inkscape:cy="274.91409"
     inkscape:window-width="1654"
     inkscape:window-height="1338"
     inkscape:window-x="98"
     inkscape:window-y="23"
     inkscape:window-maximized="0"
     inkscape:current-layer="svg1077" />
  <path
     d="M 1.6545819,101.86992 H 1.128977 v 67.97822 c 0,4.90565 4.0296364,8.93528 8.935281,8.93528 h 69.993031 c -0.613206,-42.48638 -35.47832,-76.9135 -78.4027071,-76.9135 z m 0,-56.064505 H 1.128977 v 28.90826 C 58.857898,74.976478 105.81191,121.4049 106.42512,178.78342 H 136.3846 C 135.85899,105.37395 75.677249,45.805415 1.6545819,45.805415 Z M 178.87098,169.93574 V 108.52758 C 158.5476,58.770333 117.63803,19.437578 66.741968,1.1290126 h -56.67771 c -4.9056446,0 -8.935281,4.0296375 -8.935281,8.9352824 V 18.73677 C 89.956183,18.999573 162.22683,90.569419 162.75243,178.87102 h 7.18327 c 4.99323,-0.0876 8.93528,-4.02962 8.93528,-8.93528 z M 155.48157,25.920036 c 8.23447,8.234475 16.64415,18.658969 23.38941,27.857051 V 9.9766933 c 0.0139,-4.8924742 -3.95521,-8.8622765 -8.84768,-8.8476807 h -45.11441 c 10.5121,7.270866 21.37461,15.5929414 30.57268,24.7910234 z"
     style="fill:#333333;fill-opacity:1;stroke-width:0.876007"
     id="path3169" />
</svg>
