<?xml version="1.0" encoding="UTF-8"?>
<svg width="180pt" height="180pt" version="1.0" viewBox="0 0 180 180" xmlns="http://www.w3.org/2000/svg">
<g transform="matrix(.12672 0 0 -.12672 -24.387 204.05)">
<path d="m830 1561.4v-61.406h-581c-31.362 0-49-15.87-49-49v-1212c0-32.992 16.82-49 49-49h672c34.153 0 49 15.082 49 45.529v64.471h591c30.941 0 49 15.759 49 49v1212c0 31.357-16.47 49-49 49h-682c-33.299 0-49-16.991-49-48.594zm710.68-123.41v-966h-638.68v966zm-710.68-1088c-186.23-4.6498-558-4.4948-558-4.4948v994.87s371.85-0.3711 558-0.3711z"/>
</g>
</svg>
