<?xml version="1.0" encoding="UTF-8"?>
<svg width="180pt" height="180pt" version="1.0" viewBox="0 0 180 180" xmlns="http://www.w3.org/2000/svg">
<path d="m1.6546 101.87h-0.5256v67.978c0 4.9056 4.0296 8.9353 8.9353 8.9353h69.993c-0.61321-42.486-35.478-76.914-78.403-76.914zm0-56.065h-0.5256v28.908c57.729 0.2628 104.68 46.691 105.3 104.07h29.959c-0.52561-73.409-60.707-132.98-134.73-132.98zm177.22 124.13v-61.408c-20.323-49.757-61.233-89.09-112.13-107.4h-56.678c-4.9056 0-8.9353 4.0296-8.9353 8.9353v8.6725c88.827 0.2628 161.1 71.833 161.62 160.13h7.1833c4.9932-0.0876 8.9353-4.0296 8.9353-8.9353zm-23.389-144.02c8.2345 8.2345 16.644 18.659 23.389 27.857v-43.8c0.0139-4.8925-3.9552-8.8623-8.8477-8.8477h-45.114c10.512 7.2709 21.375 15.593 30.573 24.791z" fill="#333" stroke-width=".87601"/>
</svg>
