<?xml version="1.0" encoding="UTF-8"?>
<svg width="180pt" height="180pt" version="1.0" viewBox="0 0 180 180" xmlns="http://www.w3.org/2000/svg" xmlns:xlink="http://www.w3.org/1999/xlink">
<g transform="translate(-24.227 -14.33)">
<g transform="matrix(1.1311 0 0 1.1311 -14.974 -13.676)">
<path d="m184.86 78.498c-3.3126-7.9708-10.032-16.577-15.294-19.297a79.216 79.216 0 0 1 7.7209 23.133v0.07278l0.0131 0.08066a69.046 69.046 0 0 1-2.3723 51.46c-8.7379 18.749-29.88 37.965-62.987 37.021-35.762-1.0131-67.275-27.559-73.157-62.318-1.0721-5.4824 0-8.2619 0.53899-12.717a56.81 56.81 0 0 0-1.2255 10.52v0.39342a76.245 76.245 0 0 0 151.37 12.892c0.12773-0.98356 0.23212-1.9573 0.34621-2.9507a78.409 78.409 0 0 0-4.9453-38.3z" fill="#4a4a4a" stroke-width="1.9671"/>
<path d="m147.8 87.449c0.16524 0.11606 0.31867 0.23212 0.47407 0.34818a41.506 41.506 0 0 0-7.0816-9.2356c-23.704-23.704-6.2102-51.381-3.2615-52.797l0.0296-0.04328c-19.15 11.213-25.651 31.966-26.241 42.352 0.88913-0.06098 1.7704-0.13573 2.6792-0.13573a38.477 38.477 0 0 1 33.402 19.508z" fill="#4a4a4a" stroke-width="1.9671"/>
<path d="m108.54 106.04c-16.581-0.18229-20.216 9.0243-20.216 9.0243 1.094 12.865 12.622 19.199 23.918 19.888 31.478-0.83443 36.237-38.438 7.625-51.898 3.0915-2.6384 5.6838-4.768 12.393-4.8944-5.0128-3.9723-24.885-8.4252-33.807-1.9578 5.9549 5.2994 21.865 11.138 24.139 14.175-1.4148 5.1271-9.5869 15.177-14.052 15.663z" fill="#4a4a4a" stroke-width="1.8024"/>
<path d="m87.169 73.64c0.61768 0.39342 1.1272 0.7357 1.5737 1.0445a35.349 35.349 0 0 1-0.21428-18.634 56.456 56.456 0 0 0-18.351 14.183c0.37178-0.0099 11.431-0.20851 16.992 3.407z" fill="#4f4f4f" stroke-width="1.9671"/>
<path d="m38.766 108.65c5.8836 34.759 37.395 61.315 73.157 62.318 33.107 0.93636 54.253-18.282 62.987-37.021a69.046 69.046 0 0 0 2.3723-51.46v-0.07278c0-0.05704-0.0132-0.09049 0-0.07278l0.0131 0.12786c2.7048 17.659-6.277 34.759-20.32 46.345l-0.0433 0.0983c-27.363 22.287-53.545 13.443-58.836 9.8356q-0.55473-0.26556-1.1095-0.55276c-15.951-7.6245-22.543-22.15-21.127-34.621a19.579 19.579 0 0 1-18.06-11.36 28.759 28.759 0 0 1 28.031-1.1252 37.965 37.965 0 0 0 28.622 1.1252c-0.02938-0.61964-13.298-5.9014-18.471-10.996-2.7638-2.7245-4.0759-4.0365-5.2384-5.022a22.799 22.799 0 0 0-1.9671-1.4911c-0.45246-0.30884-0.96192-0.64325-1.5737-1.0445-5.561-3.6156-16.62-3.4169-16.986-3.407h-0.03541c-3.0215-3.83-2.809-16.459-2.6359-19.097a13.628 13.628 0 0 0-2.5454 1.3514 55.512 55.512 0 0 0-7.4514 6.3833 66.567 66.567 0 0 0-7.1564 8.5314v0.01185-0.01364a64.384 64.384 0 0 0-10.229 23.094c-0.03738 0.1554-2.7461 11.997-1.4104 18.139z" fill="#7c7c7c" stroke-width="1.9671"/>
<path d="m141.19 78.557a41.506 41.506 0 0 1 7.0816 9.2454c0.41899 0.31671 0.81045 0.63145 1.1429 0.93635 17.285 15.934 8.2284 38.457 7.5537 40.05 14.041-11.569 23.015-28.681 20.32-46.345-8.6238-21.501-23.251-30.176-35.172-49.04-0.6039-0.95405-1.2078-1.9101-1.796-2.9192-0.33635-0.57637-0.60585-1.0957-0.83994-1.5737a13.874 13.874 0 0 1-1.137-3.0195 0.19671 0.19671 0 0 0-0.17311-0.19671 0.27146 0.27146 0 0 0-0.14347 0c-0.0109 0-0.0262 0.01757-0.0375 0.02151-0.0109 4e-3 -0.0373 0.02177-0.055 0.02951-2.9487 1.3986-20.438 29.094 3.2654 52.778z" fill="#fff" stroke-width="1.9671"/>
<path d="m149.41 88.747c-0.33243-0.3049-0.7239-0.61964-1.1429-0.93635-0.15526-0.11606-0.30884-0.23212-0.47407-0.34818a26.32 26.32 0 0 0-18.383-4.4634c27.422 13.711 20.065 60.922-17.938 59.151a33.913 33.913 0 0 1-9.9202-1.914q-1.1193-0.41899-2.2386-0.91667c-0.43079-0.19671-0.8616-0.39342-1.2865-0.61374l0.05321 0.0333c5.2994 3.6175 31.474 12.456 58.836-9.8356l0.0433-0.0983c0.68256-1.5934 9.7392-24.117-7.5537-40.05z" fill="#dadada" stroke-width="1.9671"/>
<path d="m80.067 113.73s3.5192-13.115 25.199-13.115c2.3428 0 9.0487-6.5407 9.1687-8.437a37.965 37.965 0 0 1-28.622-1.1252 28.759 28.759 0 0 0-28.031 1.1252 19.579 19.579 0 0 0 18.06 11.36c-1.4124 12.466 5.1775 26.989 21.127 34.621 0.35605 0.17127 0.69045 0.35605 1.0563 0.51932-9.3104-4.8096-16.998-13.906-17.958-24.943z" fill="#cdcdcd" stroke-width="1.9671"/>
<path d="m184.86 78.498c-3.3126-7.9708-10.032-16.577-15.294-19.297 3.7523 7.2663 6.3568 15.07 7.7209 23.133l0.0131 0.12786c-8.6199-21.481-23.232-30.156-35.172-49.021-0.6039-0.95405-1.2078-1.9101-1.796-2.9192-0.33639-0.57636-0.60588-1.0957-0.83997-1.5737-0.49516-0.95886-0.87673-1.9722-1.137-3.0195 7.2e-4 -0.10006-0.0736-0.1847-0.1731-0.19671-0.0469-0.01285-0.0965-0.01285-0.14373 0-0.0109 0-0.0262 0.01784-0.0373 0.02177-0.013 4e-3 -0.0375 0.02177-0.0551 0.02951l0.0294-0.05114c-19.15 11.213-25.651 31.966-26.241 42.352 0.88913-0.06098 1.7704-0.13573 2.6792-0.13573 13.831 0.02675 26.583 7.4746 33.402 19.508-5.3627-3.7145-11.914-5.3051-18.383-4.4634 27.422 13.711 20.065 60.922-17.938 59.151-3.3838-0.13902-6.7276-0.78426-9.9202-1.914-0.74616-0.27934-1.4924-0.58489-2.2386-0.91668-0.43078-0.19671-0.86157-0.39343-1.2865-0.61374l0.05321 0.0333c-0.36981-0.17704-0.73963-0.36129-1.1094-0.55276 0.35604 0.17101 0.69046 0.35605 1.0563 0.51932-9.3104-4.8116-16.998-13.908-17.958-24.943 0 0 3.5192-13.115 25.199-13.115 2.3428 0 9.0487-6.5407 9.1687-8.437-0.02967-0.6197-13.298-5.9014-18.471-10.996-2.7638-2.7245-4.0759-4.0365-5.2384-5.022-0.62832-0.53218-1.285-1.0299-1.9671-1.4911-1.737-6.0805-1.811-12.516-0.21455-18.634-7.0327 3.4066-13.282 8.2362-18.351 14.183h-0.03541c-3.0215-3.83-2.809-16.459-2.6359-19.097-0.89386 0.35924-1.7471 0.81224-2.5454 1.3514-2.6674 1.9037-5.1609 4.0398-7.4514 6.3833-2.6102 2.6464-4.9942 5.5067-7.1269 8.5511v0.01185-0.01391c-4.901 6.9471-8.3776 14.796-10.229 23.094l-0.10229 0.50358c-0.1436 0.67079-0.78685 4.0778-0.8793 4.8096-0.58836 3.517-0.96411 7.0662-1.1252 10.628v0.39341c0.06985 39.549 30.368 72.479 69.775 75.836 39.407 3.3563 74.838-23.976 81.595-62.943 0.12774-0.98356 0.23213-1.9573 0.34622-2.9507 1.5704-12.979-0.12957-26.145-4.9453-38.3zm-7.5635 3.9165 0.0131 0.08066z" fill="#a7a7a7" fill-opacity=".8" stroke-width="1.9671"/>
</g>
</g>
</svg>
