<?xml version="1.0" encoding="UTF-8"?>
<svg width="180pt" height="180pt" version="1.0" viewBox="0 0 180 180" xmlns="http://www.w3.org/2000/svg">
<g transform="matrix(.34698 0 0 .34698 1.1727 1.1725)">
<circle cx="156.27" cy="167.7" r="156.27" fill="#b1b2b3"/>
<path d="m512 182.95c0 17.544-14.224 31.762-31.762 31.762s-31.762-14.218-31.762-31.762c0-17.543 14.224-31.762 31.762-31.762s31.762 14.219 31.762 31.762z" fill="#6e6e6e"/>
<path d="m454.83 260.45c0 35.081-28.438 63.522-63.523 63.522-35.088 0-63.524-28.441-63.524-63.522 0-35.083 28.437-63.524 63.524-63.524 35.086 0 63.523 28.442 63.523 63.524z" fill="#8f8f8f"/>
<path d="m467.53 424.34c0 42.1-34.124 76.225-76.228 76.225s-76.229-34.125-76.229-76.225c0-42.098 34.124-76.227 76.229-76.227 42.104 0 76.228 34.129 76.228 76.227z" fill="#808080"/>
</g>
</svg>
