<?xml version="1.0" encoding="UTF-8"?>
<svg width="180pt" height="180pt" version="1.0" viewBox="0 0 180 180" xmlns="http://www.w3.org/2000/svg">
<g transform="matrix(2.8675 0 0 2.8675 -148.3 -182.58)" stroke-width=".75">
<rect x="51.978" y="86.808" width="5.25" height="16.5" fill="#999"/>
<rect x="59.478" y="98.808" width="5.25" height="4.5" fill="#999"/>
<rect x="59.478" y="92.058" width="5.25" height="1.5" fill="#999"/>
<rect x="59.478" y="86.808" width="5.25" height="5.25"/>
<rect x="64.728" y="86.808" width="6.75" height="5.25" fill="#808080"/>
<rect x="76.728" y="92.058" width="5.25" height="11.25" fill="#999"/>
<rect x="76.728" y="86.808" width="5.25" height="5.25"/>
<rect x="72.978" y="86.808" width="3.75" height="5.25" fill="#808080"/>
<rect x="81.978" y="86.808" width="3.75" height="5.25" fill="#808080"/>
<rect x="90.978" y="92.058" width="5.25" height="11.25" fill="#999"/>
<rect x="90.978" y="86.808" width="5.25" height="5.25"/>
<rect x="87.228" y="86.808" width="3.75" height="5.25" fill="#808080"/>
<rect x="96.228" y="86.808" width="3.75" height="5.25" fill="#808080"/>
<rect x="105.23" y="92.058" width="5.25" height="11.25" fill="#999"/>
<rect x="105.23" y="86.808" width="5.25" height="5.25"/>
<rect x="101.48" y="86.808" width="3.75" height="5.25" fill="#808080"/>
<rect x="110.48" y="86.808" width="3.75" height="5.25" fill="#808080"/>
<rect x="59.478" y="93.558" width="5.25" height="5.25"/>
<rect x="64.728" y="93.558" width="4.5" height="5.25" fill="#808080"/>
</g>
</svg>
