<?xml version="1.0" encoding="UTF-8" standalone="no"?>
<svg
   width="180pt"
   height="180pt"
   version="1.0"
   viewBox="0 0 180 180"
   id="svg1077"
   sodipodi:docname="type-googleassistant.svg"
   inkscape:version="1.1.1 (3bf5ae0d25, 2021-09-20)"
   xmlns:inkscape="http://www.inkscape.org/namespaces/inkscape"
   xmlns:sodipodi="http://sodipodi.sourceforge.net/DTD/sodipodi-0.dtd"
   xmlns="http://www.w3.org/2000/svg"
   xmlns:svg="http://www.w3.org/2000/svg">
  <defs
     id="defs1081" />
  <sodipodi:namedview
     id="namedview1079"
     pagecolor="#ffffff"
     bordercolor="#666666"
     borderopacity="1.0"
     inkscape:pageshadow="2"
     inkscape:pageopacity="0.0"
     inkscape:pagecheckerboard="0"
     inkscape:document-units="pt"
     showgrid="false"
     inkscape:zoom="1.2860505"
     inkscape:cx="166.01214"
     inkscape:cy="245.71352"
     inkscape:window-width="1654"
     inkscape:window-height="1338"
     inkscape:window-x="1279"
     inkscape:window-y="23"
     inkscape:window-maximized="0"
     inkscape:current-layer="svg1077" />
  <g
     id="g54220"
     transform="matrix(0.34698162,0,0,0.34698162,1.1727035,1.1725307)">
    <circle
       cx="156.26801"
       cy="167.705"
       fill="#4285f4"
       r="156.26801"
       id="circle54212"
       style="fill:#b1b2b3;fill-opacity:1" />
    <path
       d="m 512,182.95 c 0,17.544 -14.224,31.762 -31.762,31.762 -17.538,0 -31.762,-14.218 -31.762,-31.762 0,-17.543 14.224,-31.762 31.762,-31.762 17.538,0 31.762,14.219 31.762,31.762 z"
       fill="#34a853"
       id="path54214"
       style="fill:#6e6e6e;fill-opacity:1" />
    <path
       d="m 454.829,260.449 c 0,35.081 -28.438,63.522 -63.523,63.522 -35.088,0 -63.524,-28.441 -63.524,-63.522 0,-35.083 28.437,-63.524 63.524,-63.524 35.086,0 63.523,28.442 63.523,63.524 z"
       fill="#ea4335"
       id="path54216"
       style="fill:#8f8f8f;fill-opacity:1" />
    <path
       d="m 467.533,424.339 c 0,42.1 -34.124,76.225 -76.228,76.225 -42.104,0 -76.229,-34.125 -76.229,-76.225 0,-42.098 34.124,-76.227 76.229,-76.227 42.104,0 76.228,34.129 76.228,76.227 z"
       fill="#fbbc05"
       id="path54218"
       style="fill:#808080;fill-opacity:1" />
  </g>
</svg>
