<?xml version="1.0" encoding="UTF-8"?>
<svg width="180pt" height="180pt" version="1.0" viewBox="0 0 180 180" xmlns="http://www.w3.org/2000/svg">
<g transform="matrix(0 -.19479 -.1365 0 212.85 265.93)">
<path d="m638.73 1506.4-0.51085-549.55-61.924-1.6844-0.48511 231.01c-14.129 31.959-33.416 49.198-59.516 46.995l0.043-654.19c15.988-3.3179 38.854 4.668 59.473 46.814l0.83041 230.34 61.578-0.34755 0.51085-553.06c0-45.262-6.2102-57.732 41.234-57.732h579.42c30.941 0 30.609 15.759 30.609 49v1214.1c0 31.357 1.9206 46.938-30.609 46.938h-594.13c-33.299 0-26.523-16.991-26.523-48.594zm594.95-46.382v-1125.1h-540.04v1125.1z"/>
</g>
</svg>
