<?xml version="1.0" encoding="UTF-8"?>
<svg width="180pt" height="180pt" version="1.0" viewBox="0 0 180 180" xmlns="http://www.w3.org/2000/svg" xmlns:xlink="http://www.w3.org/1999/xlink">
<g transform="matrix(1.5939 0 0 1.5939 -51.314 -64.459)" style="mix-blend-mode:normal">
<g transform="matrix(1.4539 0 0 1.4539 -40.243 -43.986)">
<path d="m90.98 76.864c-0.74081-0.08113-1.4935-0.12277-2.2559-0.12277-8.5368-2e-6 -16.559 6.1921-18.934 12.838l-2.6408 1.6355 1.6808 1.2758c-0.27898 1.0412-0.5959 3.1895-0.5959 4.7405 1e-6 5.6251 2.2668 10.721 5.9367 14.423l-5.0303 8.9619-6.6816 2.7721s-2.2868 1.0062-3.11-0.36589c-0.82324-1.3721-7.6836-13.629-7.6836-13.629s-0.73177-1.4635 0.36588-2.2868c1.0977-0.82324 8.2324-6.3115 8.2324-6.3115l-0.18294-7.5921-7.7751-6.1286s-1.3721-1.1891-0.54883-2.6527c0.82324-1.4635 7.6836-13.08 7.6836-13.08s0.82324-1.6465 2.7441-0.82324 8.8727 3.7503 8.8727 3.7503v-2e-5l6.6774-3.5674 1.3721-10.519s-0.09147-1.4635 1.738-1.4635h15.367s1.738 0.18294 2.0124 1.8294c0.27441 1.6465 1.3721 9.9704 1.3721 9.9704l1.2821 0.59299zm17.734-3.6581 6.7076-2.5965s1.6465-0.6403 2.2868 0.45736c0.6403 1.0977 7.958 13.721 7.958 13.721s0.36589 1.6465-0.27441 2.1038c-0.6403 0.45736-8.3239 6.1286-8.3239 6.1286l0.18295 7.5921 7.8665 6.6774s1.2806 1.2806 0.54883 2.3782c-0.73177 1.0977-7.5921 12.989-7.5921 12.989s-0.6403 1.3721-2.3783 0.82324c-1.738-0.54883-9.6045-3.5674-9.6045-3.5674l-6.3115 3.6588-1.4635 9.6045s-0.18295 1.8294-2.1038 1.8294c-1.9209 0-15.184 0.0915-15.184 0.0915s-1.738 0-2.0124-1.738-1.3721-9.9704-1.3721-9.9704l-1.0125-0.54843 9.3929-5.2959c0.88351 0.11631 1.7848 0.17632 2.7 0.17632 8.6688 0 16.533-5.9009 19.009-12.666 0.0682-0.18639 3.7029-2.1103 3.7029-2.1103l-2.539-2.1039s0.31687-2.3778 0.31687-3.6093c0-5.5097-2.1747-10.511-5.7125-14.194z" fill="#c6c6c6" fill-rule="evenodd"/>
<path d="m111.04 66.694-41.894 24.011 40.613 12.028-14.452-8.4154z" fill="#a1a1a1"/>
<path d="m68.325 91.208 40.705 12.028-42.351 23.92 15.825-27.35z" fill="#8b8b8b"/>
</g>
</g>
</svg>
