<?xml version="1.0" encoding="UTF-8" standalone="no"?>
<svg
   width="180pt"
   height="180pt"
   version="1.0"
   viewBox="0 0 180 180"
   id="svg1077"
   sodipodi:docname="type-ipad.svg"
   inkscape:version="1.1.1 (3bf5ae0d25, 2021-09-20)"
   xmlns:inkscape="http://www.inkscape.org/namespaces/inkscape"
   xmlns:sodipodi="http://sodipodi.sourceforge.net/DTD/sodipodi-0.dtd"
   xmlns="http://www.w3.org/2000/svg"
   xmlns:svg="http://www.w3.org/2000/svg">
  <defs
     id="defs1081" />
  <sodipodi:namedview
     id="namedview1079"
     pagecolor="#ffffff"
     bordercolor="#666666"
     borderopacity="1.0"
     inkscape:pageshadow="2"
     inkscape:pageopacity="0.0"
     inkscape:pagecheckerboard="0"
     inkscape:document-units="pt"
     showgrid="false"
     inkscape:zoom="0.64302523"
     inkscape:cx="-129.85494"
     inkscape:cy="597.17719"
     inkscape:window-width="1654"
     inkscape:window-height="1338"
     inkscape:window-x="435"
     inkscape:window-y="23"
     inkscape:window-maximized="0"
     inkscape:current-layer="svg1077" />
  <path
     d="M 162.00204,33.371139 H 18.748765 c -5.63389,0 -10.6910522,4.472081 -10.6910522,10.377604 v 93.714087 c 0,3.85132 5.4665462,9.16604 9.6041582,9.16604 H 162.20814 c 3.90311,0 8.9094,-4.60364 8.9094,-8.65275 V 41.917577 c 0,-4.144831 -5.18178,-8.546438 -9.1155,-8.546438 z m -47.98405,67.871031 c -0.84848,1.96017 -1.85282,3.7645 -3.01645,5.42337 -1.58614,2.26147 -2.88484,3.82683 -3.88569,4.69609 -1.55151,1.42683 -3.21385,2.15757 -4.99393,2.19913 -1.27792,0 -2.819043,-0.36364 -4.612978,-1.1013 -1.79982,-0.7342 -3.453841,-1.09783 -4.966222,-1.09783 -1.586143,0 -3.287265,0.36363 -5.106824,1.09783 -1.822341,0.73766 -3.290381,1.12208 -4.412811,1.16018 -1.707005,0.0727 -3.408471,-0.6788 -5.10682,-2.25801 -1.083978,-0.94546 -2.439818,-2.56622 -4.064063,-4.86233 -1.742676,-2.45195 -3.175397,-5.29521 -4.297818,-8.536772 -1.202078,-3.501284 -1.804676,-6.891758 -1.804676,-10.174167 0,-3.759992 0.81247,-7.002931 2.439825,-9.720502 1.278953,-2.182845 2.980422,-3.904744 5.109942,-5.168801 2.129518,-1.264096 4.430466,-1.908246 6.908379,-1.949455 1.355839,0 3.133846,0.419396 5.343361,1.243637 2.203287,0.827005 3.617998,1.246419 4.238262,1.246419 0.463722,0 2.035313,-0.490391 4.699551,-1.468064 2.519486,-0.906677 4.645872,-1.2821 6.387872,-1.134195 4.72032,0.38095 8.26663,2.24175 10.62508,5.594104 -4.22165,2.557917 -6.30995,6.14059 -6.26839,10.736595 0.0381,3.579898 1.33679,6.558939 3.88918,8.924304 1.15671,1.097837 2.44847,1.946321 3.88569,2.54891 -0.3117,0.903888 -0.64069,1.769697 -0.99047,2.600857 z M 103.19204,58.641418 c -1.09671,1.864415 -1.0251,5.425781 -3.06839,7.850693 -2.465797,2.882771 -5.448293,4.548585 -8.682576,4.285712 -0.0412,-0.336614 -0.0651,-0.690905 -0.0651,-1.063199 0,-2.693696 1.172645,-5.576429 3.255056,-7.933473 1.03965,-1.193408 2.3619,-2.185725 3.965363,-2.977318 1.599987,-0.779771 3.113407,-1.211027 4.536787,-1.284845 0.0415,0.375078 0.24758,0.801611 0.0589,1.122373 z M 158.35811,38.456719 H 21.025633 c -5.17676,0 -7.154173,2.271859 -7.138904,7.703179 l 0.247145,87.911002 c 0.01008,3.58613 4.130442,7.76636 7.933262,7.76636 H 157.31193 c 3.58971,0 8.28207,-3.05383 8.27178,-6.77779 l -0.24715,-89.417345 c -0.0104,-3.762461 -3.36058,-7.185406 -6.97845,-7.185406 z"
     id="path1073"
     sodipodi:nodetypes="sccsssssscccccscccccsccccscccccccsccscccsssssssssss"
     style="fill-rule:evenodd;stroke-width:0.124473" />
</svg>
