<?xml version="1.0" encoding="UTF-8" standalone="no"?>
<svg
   width="180pt"
   height="180pt"
   version="1.0"
   viewBox="0 0 180 180"
   id="svg1077"
   sodipodi:docname="type-iphone.svg"
   inkscape:version="1.1.1 (3bf5ae0d25, 2021-09-20)"
   xmlns:inkscape="http://www.inkscape.org/namespaces/inkscape"
   xmlns:sodipodi="http://sodipodi.sourceforge.net/DTD/sodipodi-0.dtd"
   xmlns="http://www.w3.org/2000/svg"
   xmlns:svg="http://www.w3.org/2000/svg">
  <defs
     id="defs1081" />
  <sodipodi:namedview
     id="namedview1079"
     pagecolor="#ffffff"
     bordercolor="#666666"
     borderopacity="1.0"
     inkscape:pageshadow="2"
     inkscape:pageopacity="0.0"
     inkscape:pagecheckerboard="0"
     inkscape:document-units="pt"
     showgrid="false"
     inkscape:zoom="1.81875"
     inkscape:cx="62.955326"
     inkscape:cy="199.58763"
     inkscape:window-width="1654"
     inkscape:window-height="1338"
     inkscape:window-x="435"
     inkscape:window-y="23"
     inkscape:window-maximized="0"
     inkscape:current-layer="svg1077" />
  <g
     transform="matrix(0.12329425,0,0,-0.12329425,-20.837717,200.96482)"
     id="g1075">
    <path
       d="M 530.61858,1481.7673 V 330.89039 c 0,-45.26189 35.92808,-85.89043 83.37223,-85.89043 h 579.69009 c 30.941,0 73.6387,43.91747 73.6387,77.15847 V 1483.4231 c 0,31.357 -36.985,71.5769 -69.515,71.5769 H 599.27948 c -33.299,0 -68.6609,-41.6297 -68.6609,-73.2327 z M 1141.5144,769.97722 c -9.0863,-20.99155 -19.8416,-40.31406 -32.3031,-58.07895 -16.986,-24.2181 -30.8938,-40.98163 -41.6121,-50.29056 -16.6151,-15.27999 -34.4171,-23.10546 -53.48,-23.55054 -13.6853,0 -30.1892,3.89424 -49.40051,11.79383 -19.27432,7.86256 -36.98722,11.75671 -53.18335,11.75671 -16.98602,0 -35.20338,-3.89415 -54.68909,-11.75671 -19.5155,-7.89959 -35.23678,-12.01633 -47.25689,-12.4243 -18.28035,-0.77887 -36.50141,7.26919 -54.68907,24.18101 -11.60835,10.1249 -26.12806,27.4818 -43.52214,52.07079 -18.66234,26.25794 -34.00543,56.70662 -46.02544,91.42051 -12.87307,37.49536 -19.32631,73.804 -19.32631,108.95537 0,40.26586 8.70075,74.99456 26.12813,104.09712 13.69635,23.3761 31.91742,41.816 54.7225,55.3528 22.80505,13.5372 47.44596,20.4355 73.982,20.8767 14.5197,0 33.56042,-4.4913 57.22217,-13.3181 23.59505,-8.8565 38.74523,-13.348 45.38766,-13.348 4.96599,0 21.79621,5.2516 50.32757,15.7216 26.98119,9.7096 49.75277,13.7299 68.40787,12.1461 50.5501,-4.0796 88.5276,-24.0068 113.7842,-59.9073 -45.2096,-27.3928 -67.5733,-65.75978 -67.1283,-114.97849 0.4079,-38.33726 14.3158,-70.23986 41.6492,-95.57063 12.3872,-11.75671 26.2208,-20.84314 41.6121,-27.29629 -3.3379,-9.6798 -6.8611,-18.95172 -10.6071,-27.85267 z m -115.9352,456.21258 c 0,-26.0969 -10.9779,-58.105 -32.85946,-84.0735 -26.40633,-30.8715 -58.34594,-48.7107 -92.98193,-45.8956 -0.44129,3.6047 -0.69726,7.3988 -0.69726,11.3858 0,28.8467 12.55787,59.7182 34.85847,84.9598 11.13365,12.7803 25.29367,23.4071 42.46518,31.8842 17.13431,8.3506 33.3416,12.9687 48.5845,13.7593 0.445,-4.0168 0.6305,-8.0342 0.6305,-12.0196 z m -47.71178,252.2547 c 42.79328,0 42.38858,-57.2746 0.0897,-57.2746 l -149.28722,0.3103 c -42.22736,0 -47.11222,56.9638 -0.0843,56.9638 M 570.08367,1462.8573 V 358.47454 c 0,-41.36203 27.47133,-73.51053 70.86715,-73.34799 l 527.21258,1.97467 c 28.653,0.10732 62.0528,33.00201 62.0528,63.38634 V 1454.4984 c 0,28.6816 -24.4,66.1981 -54.1541,66.091 l -548.56742,-1.9747 c -30.06179,-0.1082 -57.41101,-26.8508 -57.41101,-55.7574 z"
       id="path1073"
       sodipodi:nodetypes="sccsssssscccccscccccsccccscccccccsccscccssccccsssssssss"
       style="fill-rule:evenodd" />
  </g>
</svg>
