<?xml version="1.0" encoding="UTF-8" standalone="no"?>
<svg
   width="180pt"
   height="180pt"
   version="1.0"
   viewBox="0 0 180 180"
   id="svg1077"
   sodipodi:docname="type-androidtablet.svg"
   inkscape:version="1.1.1 (3bf5ae0d25, 2021-09-20)"
   xmlns:inkscape="http://www.inkscape.org/namespaces/inkscape"
   xmlns:sodipodi="http://sodipodi.sourceforge.net/DTD/sodipodi-0.dtd"
   xmlns:xlink="http://www.w3.org/1999/xlink"
   xmlns="http://www.w3.org/2000/svg"
   xmlns:svg="http://www.w3.org/2000/svg">
  <defs
     id="defs1081" />
  <sodipodi:namedview
     id="namedview1079"
     pagecolor="#ffffff"
     bordercolor="#666666"
     borderopacity="1.0"
     inkscape:pageshadow="2"
     inkscape:pageopacity="0.0"
     inkscape:pagecheckerboard="0"
     inkscape:document-units="pt"
     showgrid="false"
     inkscape:zoom="2.5721009"
     inkscape:cx="173.98229"
     inkscape:cy="244.54717"
     inkscape:window-width="1654"
     inkscape:window-height="1338"
     inkscape:window-x="1941"
     inkscape:window-y="154"
     inkscape:window-maximized="0"
     inkscape:current-layer="svg1077" />
  <g
     transform="matrix(0,-0.16937929,-0.1186974,0,196.82766,242.44136)"
     id="g1075">
    <path
       d="M 510.00002,1506.406 V 302.73192 c 0,-45.26189 16.26719,-57.73196 63.71134,-57.73196 H 1241 c 30.941,0 49,15.759 49,49 V 1508.0618 c 0,31.357 -16.47,46.9382 -49,46.9382 H 559.00003 c -33.299,0 -49.00001,-16.991 -49.00001,-48.594 z m 727.02718,-22.354 V 323.68702 H 565.6528 V 1484.052 Z M 1030.6288,294.31811 c 8.9494,0 8.4578,-17.02258 -0.092,-17.02258 l -257.47906,0.16263 c -9.09841,0 -9.7599,16.85995 -0.35976,16.85995"
       id="path1073"
       sodipodi:nodetypes="sccssssssccccccccc" />
  </g>
  <g
     id="g1386"
     transform="matrix(2.2935498,0,0,2.2935498,-118,-112.00783)">
    <use
       stroke-width="14.4"
       xlink:href="#b"
       stroke="#ffffff"
       id="use822"
       x="0"
       y="0"
       width="100%"
       height="100%" />
    <use
       xlink:href="#a"
       transform="matrix(-0.99999997,0,0,0.99999997,181.37823,1.7032385e-6)"
       id="use824"
       x="0"
       y="0"
       width="100%"
       height="100%" />
    <g
       id="a"
       stroke="#ffffff"
       stroke-width="7.2"
       transform="matrix(0.12249465,0,0,0.12249465,90.689123,75.525556)">
      <rect
         rx="6.5"
         transform="rotate(29)"
         height="86"
         width="13"
         y="-86"
         x="14"
         id="rect826" />
      <rect
         id="c"
         rx="24"
         height="133"
         width="48"
         y="41"
         x="-143" />
      <use
         y="97"
         x="85"
         xlink:href="#c"
         id="use829"
         width="100%"
         height="100%" />
    </g>
    <g
       id="b"
       transform="matrix(0.12249465,0,0,0.12249465,90.689123,75.525556)">
      <ellipse
         cy="41"
         rx="91"
         ry="84"
         id="ellipse832"
         cx="0" />
      <rect
         rx="22"
         height="182"
         width="182"
         y="20"
         x="-91"
         id="rect834" />
    </g>
    <g
       stroke="#ffffff"
       stroke-width="7.2"
       fill="#ffffff"
       id="g845"
       transform="matrix(0.12249465,0,0,0.12249465,90.689123,75.525556)">
      <path
         d="M -95,44.5 H 95"
         id="path839" />
      <circle
         cx="-42"
         r="4"
         id="circle841"
         cy="0" />
      <circle
         cx="42"
         r="4"
         id="circle843"
         cy="0" />
    </g>
  </g>
</svg>
