<?xml version="1.0" encoding="UTF-8" standalone="no"?>
<svg
   width="180pt"
   height="180pt"
   version="1.0"
   viewBox="0 0 180 180"
   id="svg1077"
   sodipodi:docname="type-firefox.svg"
   inkscape:version="1.1.1 (3bf5ae0d25, 2021-09-20)"
   xmlns:inkscape="http://www.inkscape.org/namespaces/inkscape"
   xmlns:sodipodi="http://sodipodi.sourceforge.net/DTD/sodipodi-0.dtd"
   xmlns:xlink="http://www.w3.org/1999/xlink"
   xmlns="http://www.w3.org/2000/svg"
   xmlns:svg="http://www.w3.org/2000/svg">
  <defs
     id="defs1081">
    <linearGradient
       id="a"
       x1="6.6999998"
       x2="93.290001"
       y1="31.25"
       y2="31.25"
       gradientUnits="userSpaceOnUse"
       gradientTransform="matrix(0.75,0,0,0.75,51.163544,59.406392)"
       xlink:href="#c">
      <stop
         offset="0"
         stop-color="#d93025"
         id="stop3510" />
      <stop
         offset="1"
         stop-color="#ea4335"
         id="stop3512" />
    </linearGradient>
    <linearGradient
       id="b"
       x1="55.41"
       x2="12.11"
       y1="96.870003"
       y2="21.870001"
       gradientUnits="userSpaceOnUse"
       gradientTransform="matrix(0.75,0,0,0.75,51.163544,59.406392)">
      <stop
         offset="0"
         stop-color="#1e8e3e"
         id="stop3500" />
      <stop
         offset="1"
         stop-color="#34a853"
         id="stop3502" />
    </linearGradient>
    <linearGradient
       id="c"
       x1="42.700001"
       x2="86"
       y1="100"
       y2="25.129999"
       gradientUnits="userSpaceOnUse"
       gradientTransform="matrix(0.75,0,0,0.75,51.163544,59.406392)">
      <stop
         offset="0"
         stop-color="#fcc934"
         id="stop3505" />
      <stop
         offset="1"
         stop-color="#fbbc04"
         id="stop3507" />
    </linearGradient>
    <linearGradient
       id="a-5"
       x1="70.790001"
       x2="6.447"
       y1="12.39"
       y2="74.470001"
       gradientTransform="matrix(1.6267366,0,0,1.6267366,49.132734,39.316134)"
       gradientUnits="userSpaceOnUse">
      <stop
         stop-color="#fff44f"
         offset=".048"
         id="stop40835" />
      <stop
         stop-color="#ffe847"
         offset=".111"
         id="stop40837" />
      <stop
         stop-color="#ffc830"
         offset=".225"
         id="stop40839" />
      <stop
         stop-color="#ff980e"
         offset=".368"
         id="stop40841" />
      <stop
         stop-color="#ff8b16"
         offset=".401"
         id="stop40843" />
      <stop
         stop-color="#ff672a"
         offset=".462"
         id="stop40845" />
      <stop
         stop-color="#ff3647"
         offset=".534"
         id="stop40847" />
      <stop
         stop-color="#e31587"
         offset=".705"
         id="stop40849" />
    </linearGradient>
    <radialGradient
       id="b-5"
       cx="-7907"
       cy="-8515"
       r="80.800003"
       gradientTransform="matrix(1.6267366,0,0,1.6267366,13022.845,13905.625)"
       gradientUnits="userSpaceOnUse">
      <stop
         stop-color="#ffbd4f"
         offset=".129"
         id="stop40852" />
      <stop
         stop-color="#ffac31"
         offset=".186"
         id="stop40854" />
      <stop
         stop-color="#ff9d17"
         offset=".247"
         id="stop40856" />
      <stop
         stop-color="#ff980e"
         offset=".283"
         id="stop40858" />
      <stop
         stop-color="#ff563b"
         offset=".403"
         id="stop40860" />
      <stop
         stop-color="#ff3750"
         offset=".467"
         id="stop40862" />
      <stop
         stop-color="#f5156c"
         offset=".71"
         id="stop40864" />
      <stop
         stop-color="#eb0878"
         offset=".782"
         id="stop40866" />
      <stop
         stop-color="#e50080"
         offset=".86"
         id="stop40868" />
    </radialGradient>
    <radialGradient
       id="c-5"
       cx="-7937"
       cy="-8482"
       r="80.800003"
       gradientTransform="matrix(1.6267366,0,0,1.6267366,13022.845,13905.625)"
       gradientUnits="userSpaceOnUse">
      <stop
         stop-color="#960e18"
         offset=".3"
         id="stop40871" />
      <stop
         stop-color="#b11927"
         stop-opacity=".74"
         offset=".351"
         id="stop40873" />
      <stop
         stop-color="#db293d"
         stop-opacity=".343"
         offset=".435"
         id="stop40875" />
      <stop
         stop-color="#f5334b"
         stop-opacity=".094"
         offset=".497"
         id="stop40877" />
      <stop
         stop-color="#ff3750"
         stop-opacity="0"
         offset=".53"
         id="stop40879" />
    </radialGradient>
    <radialGradient
       id="d"
       cx="-7927"
       cy="-8533"
       r="58.529999"
       gradientTransform="matrix(1.6267366,0,0,1.6267366,13022.845,13905.625)"
       gradientUnits="userSpaceOnUse">
      <stop
         stop-color="#fff44f"
         offset=".132"
         id="stop40882" />
      <stop
         stop-color="#ffdc3e"
         offset=".252"
         id="stop40884" />
      <stop
         stop-color="#ff9d12"
         offset=".506"
         id="stop40886" />
      <stop
         stop-color="#ff980e"
         offset=".526"
         id="stop40888" />
    </radialGradient>
    <radialGradient
       id="e"
       cx="-7946"
       cy="-8461"
       r="38.470001"
       gradientTransform="matrix(1.6267366,0,0,1.6267366,13022.845,13905.625)"
       gradientUnits="userSpaceOnUse">
      <stop
         stop-color="#3a8ee6"
         offset=".353"
         id="stop40891" />
      <stop
         stop-color="#5c79f0"
         offset=".472"
         id="stop40893" />
      <stop
         stop-color="#9059ff"
         offset=".669"
         id="stop40895" />
      <stop
         stop-color="#c139e6"
         offset="1"
         id="stop40897" />
    </radialGradient>
    <radialGradient
       id="f"
       cx="-7936"
       cy="-8492"
       r="20.4"
       gradientTransform="matrix(1.581188,-0.3822831,0.44735256,1.8512262,16465.019,12783.177)"
       gradientUnits="userSpaceOnUse">
      <stop
         stop-color="#9059ff"
         stop-opacity="0"
         offset=".206"
         id="stop40900" />
      <stop
         stop-color="#8c4ff3"
         stop-opacity=".064"
         offset=".278"
         id="stop40902" />
      <stop
         stop-color="#7716a8"
         stop-opacity=".45"
         offset=".747"
         id="stop40904" />
      <stop
         stop-color="#6e008b"
         stop-opacity=".6"
         offset=".975"
         id="stop40906" />
    </radialGradient>
    <radialGradient
       id="g"
       cx="-7938"
       cy="-8518"
       r="27.68"
       gradientTransform="matrix(1.6267366,0,0,1.6267366,13022.845,13905.625)"
       gradientUnits="userSpaceOnUse">
      <stop
         stop-color="#ffe226"
         offset="0"
         id="stop40909" />
      <stop
         stop-color="#ffdb27"
         offset=".121"
         id="stop40911" />
      <stop
         stop-color="#ffc82a"
         offset=".295"
         id="stop40913" />
      <stop
         stop-color="#ffa930"
         offset=".502"
         id="stop40915" />
      <stop
         stop-color="#ff7e37"
         offset=".732"
         id="stop40917" />
      <stop
         stop-color="#ff7139"
         offset=".792"
         id="stop40919" />
    </radialGradient>
    <radialGradient
       id="h"
       cx="-7916"
       cy="-8536"
       r="118.1"
       gradientTransform="matrix(1.6267366,0,0,1.6267366,13022.845,13905.625)"
       gradientUnits="userSpaceOnUse">
      <stop
         stop-color="#fff44f"
         offset=".113"
         id="stop40922" />
      <stop
         stop-color="#ff980e"
         offset=".456"
         id="stop40924" />
      <stop
         stop-color="#ff5634"
         offset=".622"
         id="stop40926" />
      <stop
         stop-color="#ff3647"
         offset=".716"
         id="stop40928" />
      <stop
         stop-color="#e31587"
         offset=".904"
         id="stop40930" />
    </radialGradient>
    <radialGradient
       id="i"
       cx="-7927"
       cy="-8523"
       r="86.5"
       gradientTransform="matrix(0.17080734,1.6186029,-1.062259,0.11224482,-7570.0134,13817.782)"
       gradientUnits="userSpaceOnUse">
      <stop
         stop-color="#fff44f"
         offset="0"
         id="stop40933" />
      <stop
         stop-color="#ffe847"
         offset=".06"
         id="stop40935" />
      <stop
         stop-color="#ffc830"
         offset=".168"
         id="stop40937" />
      <stop
         stop-color="#ff980e"
         offset=".304"
         id="stop40939" />
      <stop
         stop-color="#ff8b16"
         offset=".356"
         id="stop40941" />
      <stop
         stop-color="#ff672a"
         offset=".455"
         id="stop40943" />
      <stop
         stop-color="#ff3647"
         offset=".57"
         id="stop40945" />
      <stop
         stop-color="#e31587"
         offset=".737"
         id="stop40947" />
    </radialGradient>
    <radialGradient
       id="j"
       cx="-7938"
       cy="-8508"
       r="73.720001"
       gradientTransform="matrix(1.6267366,0,0,1.6267366,13022.845,13905.625)"
       gradientUnits="userSpaceOnUse">
      <stop
         stop-color="#fff44f"
         offset=".137"
         id="stop40950" />
      <stop
         stop-color="#ff980e"
         offset=".48"
         id="stop40952" />
      <stop
         stop-color="#ff5634"
         offset=".592"
         id="stop40954" />
      <stop
         stop-color="#ff3647"
         offset=".655"
         id="stop40956" />
      <stop
         stop-color="#e31587"
         offset=".904"
         id="stop40958" />
    </radialGradient>
    <radialGradient
       id="k"
       cx="-7919"
       cy="-8504"
       r="80.690002"
       gradientTransform="matrix(1.6267366,0,0,1.6267366,13022.845,13905.625)"
       gradientUnits="userSpaceOnUse">
      <stop
         stop-color="#fff44f"
         offset=".094"
         id="stop40961" />
      <stop
         stop-color="#ffe141"
         offset=".231"
         id="stop40963" />
      <stop
         stop-color="#ffaf1e"
         offset=".509"
         id="stop40965" />
      <stop
         stop-color="#ff980e"
         offset=".626"
         id="stop40967" />
    </radialGradient>
    <linearGradient
       id="l"
       x1="70.010002"
       x2="15.27"
       y1="12.06"
       y2="66.809998"
       gradientTransform="matrix(1.6267366,0,0,1.6267366,49.132734,39.316134)"
       gradientUnits="userSpaceOnUse">
      <stop
         stop-color="#fff44f"
         stop-opacity=".8"
         offset=".167"
         id="stop40970" />
      <stop
         stop-color="#fff44f"
         stop-opacity=".634"
         offset=".266"
         id="stop40972" />
      <stop
         stop-color="#fff44f"
         stop-opacity=".217"
         offset=".489"
         id="stop40974" />
      <stop
         stop-color="#fff44f"
         stop-opacity="0"
         offset=".6"
         id="stop40976" />
    </linearGradient>
  </defs>
  <sodipodi:namedview
     id="namedview1079"
     pagecolor="#ffffff"
     bordercolor="#666666"
     borderopacity="1.0"
     inkscape:pageshadow="2"
     inkscape:pageopacity="0.0"
     inkscape:pagecheckerboard="0"
     inkscape:document-units="pt"
     showgrid="false"
     inkscape:zoom="1.81875"
     inkscape:cx="146.52921"
     inkscape:cy="166.04811"
     inkscape:window-width="1654"
     inkscape:window-height="1338"
     inkscape:window-x="98"
     inkscape:window-y="23"
     inkscape:window-maximized="0"
     inkscape:current-layer="g11890" />
  <g
     id="g3776"
     transform="matrix(1.5938889,0,0,1.5938889,-51.313862,-64.459325)"
     style="mix-blend-mode:normal" />
  <g
     id="g42014"
     transform="translate(-24.226556,-14.329871)">
    <g
       id="g11890"
       transform="matrix(1.1310871,0,0,1.1310871,-14.973825,-13.676305)"
       style="display:inline">
      <path
         d="M 184.85562,78.498372 C 181.54299,70.527614 174.82334,61.921479 169.56128,59.200957 a 79.21579,79.21579 0 0 1 7.72093,23.133292 v 0.07278 l 0.0131,0.08066 a 69.045797,69.045797 0 0 1 -2.37233,51.459771 c -8.73793,18.74858 -29.88048,37.96535 -62.98705,37.02113 -35.7622,-1.01306 -67.275409,-27.5593 -73.157089,-62.31826 -1.072078,-5.48235 0,-8.26188 0.53899,-12.717401 a 56.810331,56.810331 0 0 0 -1.225514,10.520141 v 0.39342 A 76.245444,76.245444 0 0 0 189.4619,119.73897 c 0.12773,-0.98356 0.23212,-1.95728 0.34621,-2.95068 A 78.409272,78.409272 0 0 0 184.8628,78.48854 Z"
         style="display:inline;fill:#4a4a4a;fill-opacity:1;stroke-width:1.96712"
         id="path40985" />
      <path
         d="m 147.79516,87.448752 c 0.16524,0.116063 0.31867,0.23212 0.47407,0.34818 a 41.506162,41.506162 0 0 0 -7.08162,-9.235613 C 117.48386,54.857562 134.97742,27.18023 137.92613,25.763907 l 0.0296,-0.04328 c -19.14988,11.212564 -25.6512,31.965647 -26.24133,42.352023 0.88913,-0.06098 1.7704,-0.135732 2.67921,-0.135732 a 38.476803,38.476803 0 0 1 33.40164,19.507897 z"
         style="display:inline;fill:#4a4a4a;fill-opacity:1;stroke-width:1.96712"
         id="path40987" />
      <path
         d="m 114.51942,95.20043 c -1.40433,2.253087 -6.38316,6.82812 -8.52979,6.82812 -19.862241,0 -23.861893,11.75869 -23.861893,11.75869 0.879538,10.11856 9.090537,18.71417 17.613998,23.11199 0.389345,0.20186 0.784055,0.3839 1.178745,0.56233 0.68371,0.3028 1.36742,0.58277 2.05113,0.83991 2.92524,1.03513 5.98903,1.62626 9.08939,1.75371 35.85322,0.98847 42.6169,-44.636321 12.1823,-57.548944 3.09146,-1.544618 8.96499,-3.309664 16.58545,-1.066329 0,0 -10.19799,-10.889198 -26.47971,-11.171499 -0.82909,0 -1.64014,0.0685 -2.45485,0.124363 -7.00954,0.480568 -12.294942,2.190381 -17.814853,6.537235 1.065231,0.90119 2.223165,1.984101 4.755534,4.480398 5.195979,4.30539 17.716279,9.856502 17.743309,10.424252 z"
         style="display:inline;fill:#4a4a4a;fill-opacity:1;stroke-width:1.80238"
         id="path40989"
         sodipodi:nodetypes="csccccccccccccc" />
      <path
         d="m 87.168623,73.639593 c 0.617675,0.393424 1.127157,0.735702 1.573667,1.04454 A 35.349088,35.349088 0 0 1 88.528005,56.049636 56.45625,56.45625 0 0 0 70.176787,70.232547 c 0.371784,-0.0099 11.430928,-0.208514 16.991967,3.407046 z"
         style="display:inline;fill:#4f4f4f;fill-opacity:1;stroke-width:1.96712"
         id="path40993" />
      <path
         d="m 38.765735,108.65427 c 5.883647,34.75895 37.394889,61.31503 73.157085,62.31825 33.10655,0.93636 54.25305,-18.28238 62.98706,-37.02113 a 69.045797,69.045797 0 0 0 2.37233,-51.459772 v -0.07278 c 0,-0.05704 -0.0132,-0.09049 0,-0.07278 l 0.0131,0.127862 c 2.7048,17.6588 -6.27703,34.75895 -20.3203,46.34527 l -0.0433,0.0983 c -27.36258,22.28744 -53.54489,13.44328 -58.836436,9.83558 q -0.554727,-0.26556 -1.109458,-0.55276 C 81.034497,130.57582 74.442676,116.05063 75.859,103.57911 A 19.578712,19.578712 0 0 1 57.798902,92.219011 28.759246,28.759246 0 0 1 85.830328,91.093819 37.965353,37.965353 0 0 0 114.45187,92.219011 C 114.42249,91.599369 101.15416,86.31766 95.98065,81.222828 93.216851,78.498372 91.904784,77.186305 90.742218,76.20078 a 22.798882,22.798882 0 0 0 -1.967116,-1.491076 c -0.452463,-0.308836 -0.96192,-0.643247 -1.573693,-1.044538 -5.56104,-3.615561 -16.620183,-3.416882 -16.986067,-3.407047 h -0.03541 C 67.158442,66.428143 67.370891,53.799254 67.543998,51.16135 a 13.628184,13.628184 0 0 0 -2.545449,1.351409 55.512034,55.512034 0 0 0 -7.451439,6.383295 66.56723,66.56723 0 0 0 -7.15637,8.531384 v 0.01185 -0.01364 A 64.38373,64.38373 0 0 0 40.161733,90.519598 C 40.124353,90.675 37.415638,102.51705 38.75131,108.65838 Z"
         style="display:inline;fill:#7c7c7c;fill-opacity:1;stroke-width:1.96712"
         id="path40995" />
      <path
         d="m 141.18564,78.557385 a 41.506162,41.506162 0 0 1 7.08163,9.245448 c 0.41899,0.316707 0.81045,0.631446 1.14289,0.936348 17.28503,15.933639 8.22845,38.457139 7.55371,40.050489 14.04129,-11.56861 23.01527,-28.68056 20.32032,-46.345262 -8.62383,-21.500587 -23.2513,-30.175571 -35.17203,-49.04022 -0.6039,-0.954051 -1.20781,-1.91007 -1.796,-2.919201 -0.33635,-0.576366 -0.60585,-1.095685 -0.83994,-1.573694 a 13.874074,13.874074 0 0 1 -1.13699,-3.019524 0.19671167,0.19671167 0 0 0 -0.17311,-0.196712 0.2714621,0.2714621 0 0 0 -0.14347,0 c -0.0109,0 -0.0262,0.01757 -0.0375,0.02151 -0.0109,0.004 -0.0373,0.02177 -0.055,0.02951 -2.94871,1.39862 -20.43835,29.093656 3.26541,52.777741 z"
         style="display:inline;fill:#ffffff;fill-opacity:1;stroke-width:1.96712"
         id="path40997" />
      <path
         d="m 149.40819,88.74705 c -0.33243,-0.304904 -0.7239,-0.619642 -1.14289,-0.936348 -0.15526,-0.116063 -0.30884,-0.23212 -0.47407,-0.348179 a 26.320022,26.320022 0 0 0 -18.38271,-4.463389 c 27.42158,13.710801 20.0646,60.921606 -17.93814,59.151206 a 33.913092,33.913092 0 0 1 -9.92017,-1.91402 q -1.11928,-0.41899 -2.238578,-0.91667 c -0.430793,-0.19671 -0.861597,-0.39342 -1.286488,-0.61374 l 0.05321,0.0333 c 5.299416,3.61753 31.473856,12.45578 58.836456,-9.83559 l 0.0433,-0.0983 c 0.68256,-1.59337 9.73917,-24.11685 -7.55373,-40.050497 z"
         style="display:inline;fill:#dadada;fill-opacity:1;stroke-width:1.96712"
         id="path40999" />
      <path
         d="m 80.067331,113.72943 c 0,0 3.519172,-13.11477 25.198759,-13.11477 2.34285,0 9.04874,-6.540661 9.16873,-8.436959 A 37.965353,37.965353 0 0 1 85.81328,91.05251 28.759246,28.759246 0 0 0 57.781853,92.177701 19.578712,19.578712 0 0 0 75.841952,103.53779 c -1.41239,12.46562 5.177464,26.98885 21.126846,34.62126 0.35605,0.17127 0.690454,0.35605 1.056346,0.51932 -9.310368,-4.80959 -16.997859,-13.90554 -17.957813,-24.94304 z"
         style="display:inline;fill:#cdcdcd;fill-opacity:1;stroke-width:1.96712"
         id="path41001" />
      <path
         d="m 184.85562,78.498372 c -3.31263,-7.970758 -10.03228,-16.576893 -15.29434,-19.297415 3.75234,7.266327 6.35683,15.069879 7.72093,23.133292 l 0.0131,0.127862 C 168.67541,60.981197 154.0637,52.306212 142.1233,33.441563 c -0.6039,-0.954051 -1.20781,-1.91007 -1.79597,-2.919201 -0.33639,-0.576365 -0.60588,-1.095685 -0.83997,-1.573694 -0.49516,-0.958864 -0.87673,-1.972223 -1.137,-3.019524 7.2e-4,-0.100064 -0.0736,-0.184699 -0.1731,-0.196712 -0.0469,-0.01285 -0.0965,-0.01285 -0.14373,0 -0.0109,0 -0.0262,0.01784 -0.0373,0.02177 -0.013,0.004 -0.0375,0.02177 -0.0551,0.02951 l 0.0294,-0.05114 c -19.14988,11.212565 -25.65121,31.965646 -26.24137,42.352023 0.88913,-0.06098 1.77043,-0.135731 2.67925,-0.135731 13.83079,0.02675 26.5831,7.474624 33.40163,19.507896 -5.3627,-3.714488 -11.91375,-5.305103 -18.3827,-4.463387 27.42158,13.710801 20.06456,60.921607 -17.93814,59.151207 -3.38376,-0.13902 -6.72756,-0.78426 -9.9202,-1.91401 -0.74616,-0.27934 -1.49239,-0.58489 -2.238573,-0.91668 -0.43078,-0.19671 -0.861572,-0.39343 -1.286475,-0.61374 l 0.05321,0.0333 c -0.36981,-0.17704 -0.739632,-0.36129 -1.109449,-0.55276 0.356044,0.17101 0.690459,0.35605 1.056339,0.51932 -9.310361,-4.81157 -16.997853,-13.90752 -17.957806,-24.94304 0,0 3.519172,-13.11477 25.198764,-13.11477 2.34283,0 9.04874,-6.540663 9.16873,-8.436961 C 114.42407,91.58554 101.15599,86.303832 95.982472,81.208999 93.218673,78.484543 91.906607,77.172475 90.74404,76.18695 90.115717,75.654769 89.459067,75.157015 88.776924,74.695876 87.039934,68.615374 86.965891,62.18024 88.562377,56.061379 81.529646,59.468028 75.280727,64.297563 70.211131,70.24429 h -0.03541 C 67.15423,66.414314 67.366678,53.785425 67.539785,51.147521 c -0.893864,0.359238 -1.747114,0.812241 -2.545449,1.351409 -2.667353,1.903658 -5.160905,4.039763 -7.451439,6.383294 -2.610196,2.646373 -4.99415,5.506726 -7.126863,8.551056 v 0.01185 -0.01391 C 45.515032,74.378331 42.038476,82.227326 40.18703,90.525175 l -0.10229,0.503582 c -0.143599,0.670787 -0.786847,4.07783 -0.879301,4.809597 v 0 c -0.588362,3.516952 -0.964107,7.066176 -1.125191,10.628346 v 0.39341 c 0.06985,39.5492 30.368191,72.47936 69.774772,75.83572 39.40656,3.35634 74.83757,-23.97552 81.59484,-62.94323 0.12774,-0.98356 0.23213,-1.95729 0.34622,-2.95068 1.57038,-12.97922 -0.12957,-26.145116 -4.94531,-38.299762 z m -7.56354,3.916528 0.0131,0.08066 z"
         style="display:inline;fill:#a7a7a7;fill-opacity:0.8;stroke-width:1.96712"
         id="path41003"
         sodipodi:nodetypes="ccccccccccsccccccccccccccscccccccccccccccssccsccccccc" />
    </g>
  </g>
</svg>
