<?xml version="1.0" encoding="UTF-8"?>
<svg width="180pt" height="180pt" version="1.0" viewBox="0 0 180 180" xmlns="http://www.w3.org/2000/svg">
<g transform="matrix(.13695 0 0 -.13695 -33.255 213.25)">
<path d="m510 374.67c0-64.347 55.096-129.7 117.89-129.7h570.53c46.55 0 91.584 48.253 91.584 121.39v1080c0 57.507-45.702 108.68-91.584 108.68h-584.06c-56.17 0-104.36-50.389-104.36-110.26-0.00201-197.21-1e-3 -764.54-1e-3 -1070.1zm496.82 957.13c52.861 0 53.5-71.564 0.1184-71.564l-196.37 0.25c-53.8 0-57.678 71.314-0.11089 71.314m-166.69-3.886v-837.68c0-50.019 36.211-106.03 84.467-106.03h366.45c44.889 0 67.291 52.566 67.291 100.45v844.33c0 48.904-33.174 91.649-67.291 91.649h-375.13c-46.288 0-75.778-40.316-75.778-92.707z" fill-rule="evenodd"/>
</g>
</svg>
