<?xml version="1.0" encoding="UTF-8"?>
<svg width="180pt" height="180pt" version="1.0" viewBox="0 0 180 180" xmlns="http://www.w3.org/2000/svg">
<g transform="matrix(.1 0 0 -.1 0 180)">
<path d="m830 1561.4v-61.406h-581c-31.362 0-49-15.87-49-49v-1212c0-32.992 16.82-49 49-49h672c34.153 0 49 15.082 49 45.529v64.471h591c30.941 0 49 15.759 49 49v1212c0 31.357-16.47 49-49 49h-682c-33.299 0-49-16.991-49-48.594zm710.68-123.41v-966h-638.68l-1.6907 438h283.69l-84-86 60-58 95 94 95 95-189 189-31-29-30-29 84-86h-283.69l1.6907 438zm-710.68-548h-81c-72 0-46.186-0.35616-81 0.625-13.156 22.786-39.565 49.375-85 49.375-41.5 0-93.937-32.344-94.406-95-0.42315-56.561 44.469-95 94.406-95 36.031 0 65.584 15.871 85.469 50.312 34.828-0.02331 8.5312-0.3125 80.531-0.3125h81v-450c-186.23-4.6498-558-4.4948-558-4.4948v994.87s371.85-0.3711 558-0.3711z"/>
</g>
</svg>
